<?xml version="1.0" encoding="UTF-8" standalone="no"?>
<!-- Created with Inkscape (http://www.inkscape.org/) -->

<svg
   width="350"
   height="350"
   viewBox="0 0 92.604165 92.604167"
   version="1.1"
   id="svg1"
   xmlns="http://www.w3.org/2000/svg"
   xmlns:svg="http://www.w3.org/2000/svg">
  <defs
     id="defs1" />
  <g
     id="layer1">
    <g
       id="g11">
      <path
         d="m -0.75953241,24.874686 c -0.0731272,1.486393 -0.35520919,2.986494 -0.0891409,4.450707 0.13303414,0.732106 0.40867704,1.448777 0.87528528,2.028393 0.46660825,0.579616 1.13532303,1.012965 1.87221903,1.116224 0.5821747,0.08158 1.1787871,-0.04284 1.7223924,-0.266617 0.5436052,-0.223776 1.041475,-0.543884 1.5310477,-0.869308 0.4895726,-0.325425 0.9765777,-0.65931 1.5061236,-0.914582 0.5295459,-0.255271 1.1087398,-0.430823 1.6964619,-0.417973 0.5948619,0.01301 1.1740026,0.219197 1.6878424,0.519194 0.51384,0.299998 0.96801,0.691672 1.400509,1.100297 0.864998,0.81725 1.692961,1.736635 2.798025,2.178171 0.743848,0.297209 1.570228,0.353732 2.36371,0.244053 0.793481,-0.109679 1.557577,-0.380052 2.284397,-0.716765 1.453641,-0.673424 2.779189,-1.615619 4.276398,-2.185652 2.234629,-0.850791 4.736263,-0.815626 7.061117,-0.256643 2.324855,0.558983 4.499145,1.616263 6.589819,2.776647 2.090674,1.160385 4.121923,2.432975 6.276626,3.469636 2.154702,1.036661 4.459315,1.839328 6.845957,1.985452 4.219727,0.258357 8.284943,-1.538148 11.980427,-3.591498 3.695483,-2.053351 7.290671,-4.432239 11.375193,-5.522892 2.892849,-0.772451 5.915657,-0.865127 8.90262,-1.073233 2.986963,-0.208106 6.023896,-0.551052 8.75651,-1.775012 2.291191,-1.026243 4.300999,-2.657854 5.818198,-4.658063 1.5172,-2.00021 2.54326,-4.362923 3.020921,-6.827588 C 100.74845,10.738305 99.459942,5.4906667 96.650499,1.3291817 94.094963,-2.4562038 90.39116,-5.3425853 86.429804,-7.6158131 82.468448,-9.8890409 78.21694,-11.602003 74.054411,-13.4817 66.080166,-17.082674 58.397953,-21.313011 50.365904,-24.783139 42.333855,-28.253268 33.844652,-30.975752 25.1026,-31.339251 c -8.742052,-0.363498 -17.8046881,1.809925 -24.63769531,7.274869 -3.41650359,2.732472 -6.22362899,6.256488 -7.95496559,10.274121 -1.7313366,4.0176329 -2.3639939,8.5290252 -1.6243281,12.8408455 0.7712539,4.4959605 2.9612356,8.5984528 4.8985819,12.7282445 1.9373463,4.129792 3.68042575,8.539735 3.45627469,13.095857 z"
         id="path5"
         style="fill:#5599ff" />
      <path
         style="fill:#5599ff;fill-rule:nonzero;stroke:none;stroke-width:0.264583"
         d="m -5.7456401,24.629381 c -0.023995,0.487727 -0.1074047,1.194971 -0.1681142,2.168162 -0.053,0.849605 -0.090645,2.07749 0.1533762,3.420374 0.2221204,1.222362 0.7321286,2.817684 1.8983446,4.266345 0.5628095,0.699116 1.2730621,1.349323 2.1241804,1.868372 0.82356555,0.502247 1.80876887,0.902148 2.9439204,1.061213 0.8562963,0.11999 1.6678756,0.0832 2.3984915,-0.03999 0.7037759,-0.118672 1.3477994,-0.319855 1.916969,-0.554154 1.0354475,-0.426244 1.8849082,-0.98959 2.394251,-1.328156 0.5177267,-0.344138 0.8345923,-0.538592 0.9103843,-0.575128 0.026436,-0.01274 0.010288,1.66e-4 -0.081475,0.0241 -0.090115,0.0235 -0.2582464,0.05722 -0.4989511,0.05196 -0.2424961,-0.0053 -0.4255761,-0.04835 -0.5379639,-0.08431 -0.1088185,-0.03482 -0.1680501,-0.06809 -0.1820812,-0.07628 -0.013732,-0.008 0.1632547,0.109969 0.4891139,0.41784 0.2176484,0.205634 0.9229604,0.908433 1.4948505,1.396979 0.6632007,0.566549 1.6197547,1.285011 2.8793007,1.788274 1.702185,0.680119 3.429101,0.756634 4.899515,0.553388 1.44259,-0.199402 2.698198,-0.668426 3.699318,-1.132212 0.945728,-0.438126 1.862344,-0.970452 2.457102,-1.302535 0.679222,-0.379244 1.113881,-0.601444 1.497116,-0.747354 0.514472,-0.195875 1.126466,-0.315191 1.836043,-0.331625 0.709449,-0.01643 1.482928,0.07128 2.281765,0.263354 1.655077,0.397943 3.354897,1.189147 5.334206,2.28772 1.760332,0.977036 4.221632,2.490349 6.534946,3.603321 2.460721,1.183891 5.424911,2.268852 8.705212,2.469692 2.918836,0.178708 5.647852,-0.362178 8.081004,-1.179211 2.422631,-0.813501 4.666387,-1.940737 6.629171,-3.031334 1.964529,-1.091568 3.757642,-2.179474 5.447331,-3.071339 1.711657,-0.903458 3.259156,-1.583105 4.791055,-1.992156 1.086785,-0.290194 2.271946,-0.471756 3.613902,-0.602954 1.399562,-0.136831 2.728919,-0.20058 4.347822,-0.313371 1.553898,-0.108263 3.26988,-0.260756 5.009078,-0.573095 1.758237,-0.315759 3.611278,-0.806381 5.441112,-1.625976 3.110177,-1.393074 5.768724,-3.578609 7.754935,-6.197143 2.01819,-2.660701 3.33402,-5.744797 3.94448,-8.894693 0.62321,-3.215709 0.49791,-6.461763 -0.19138,-9.5085314 -0.69644,-3.0783392 -1.97811,-6.0007421 -3.71467,-8.5730085 -1.582784,-2.3444973 -3.477825,-4.3423858 -5.488241,-6.0505969 -2.033749,-1.7280375 -4.218562,-3.1876242 -6.385278,-4.4309962 -4.244381,-2.435643 -9.020909,-4.376731 -12.805533,-6.085775 -7.871338,-3.554504 -15.592671,-7.804479 -23.763162,-11.334419 -4.211961,-1.819714 -8.557135,-3.44647 -13.022048,-4.673879 -4.565085,-1.254946 -9.243529,-2.088981 -14.013762,-2.287329 -4.910175,-0.204163 -9.882573,0.313078 -14.589779,1.632799 -4.8417833,1.357452 -9.4184238,3.568178 -13.3733641,6.731284 -4.1386837,3.310061 -7.4047489,7.517183 -9.4214809,12.197087 -2.178472,5.055228 -2.837107,10.5476703 -1.960031,15.66052593 0.483381,2.81782867 1.398309,5.37928277 2.331534,7.59508717 0.932538,2.2141717 2.1399851,4.6447299 2.967775,6.4093079 0.9743296,2.076954 1.7446302,3.911183 2.2727173,5.689209 0.5640809,1.899214 0.7906208,3.544587 0.7169928,5.04116 z m 9.9722154,0.49061 C 4.3682983,22.239311 3.9104834,19.446041 3.1084164,16.745547 2.3709771,14.262649 1.3581064,11.906221 0.30373541,9.6586454 -0.67783056,7.5662662 -1.6709417,5.5867074 -2.5016409,3.6143361 -3.284806,1.7548272 -3.8905041,-0.02354824 -4.1941209,-1.7934575 -4.7330901,-4.93534 -4.345869,-8.4721662 -2.9054935,-11.814613 c 1.3322631,-3.091567 3.55327694,-6.003644 6.4884548,-8.351158 2.7870057,-2.229008 6.1222724,-3.874695 9.8325427,-4.914914 3.614211,-1.013287 7.530412,-1.434947 11.479662,-1.270739 3.880991,0.161373 7.802842,0.844914 11.782082,1.938811 3.897736,1.071492 7.792345,2.520181 11.708715,4.212189 7.597069,3.282202 15.252981,7.492893 23.613891,11.2684757 4.29739,1.9405964 8.258653,3.5304408 11.945254,5.6459999 1.765371,1.0130601 3.42188,2.132632 4.889781,3.3798795 1.447819,1.230184 2.69121,2.5667116 3.678075,4.0285015 1.057072,1.5657875 1.834062,3.344261 2.251551,5.1896088 0.412626,1.8238606 0.464404,3.6682226 0.127667,5.4057526 -0.33624,1.734956 -1.055108,3.386436 -2.097356,4.760492 -1.026116,1.352787 -2.3774,2.445308 -3.881488,3.119001 -0.896018,0.401333 -1.924834,0.695451 -3.124601,0.910915 -1.203989,0.216221 -2.49537,0.339504 -3.938192,0.440028 -1.353956,0.09433 -3.04491,0.182085 -4.625399,0.336604 -1.632938,0.159647 -3.407956,0.410183 -5.218151,0.893543 -2.548011,0.680376 -4.838258,1.733185 -6.875876,2.808694 -2.048498,1.081254 -3.90116,2.209586 -5.636086,3.173578 -1.728974,0.960683 -3.366866,1.759635 -4.958093,2.293957 -1.576064,0.529229 -2.989954,0.758262 -4.292606,0.678506 -1.492982,-0.09141 -3.138019,-0.611781 -4.986703,-1.501212 -1.993819,-0.959258 -3.610195,-1.999379 -6.018317,-3.335957 -2.216214,-1.230062 -4.859264,-2.547582 -7.845419,-3.265567 -1.530504,-0.367991 -3.169857,-0.576178 -4.847022,-0.537335 -1.686622,0.03906 -3.441754,0.329148 -5.157408,0.98235 -1.116296,0.42501 -2.09552,0.960733 -2.811963,1.360758 -0.812671,0.453756 -1.279817,0.725875 -1.786607,0.960655 -0.464506,0.21519 -0.734142,0.282611 -0.869491,0.30132 -0.09817,0.01357 -0.06246,-0.02844 0.172091,0.06528 0.150156,0.06 0.13905,0.09505 -0.09876,-0.108106 -0.220113,-0.188035 -0.592274,-0.56143 -1.123127,-1.062979 -0.526403,-0.497346 -1.306315,-1.195656 -2.311903,-1.782753 -0.53186,-0.310518 -1.137448,-0.595787 -1.80915,-0.810718 C 10.066621,25.18 9.296902,25.028795 8.4639764,25.010584 c -0.8325759,-0.0182 -1.5892392,0.09936 -2.2390451,0.268844 -0.659592,0.172031 -1.2429113,0.406283 -1.734305,0.643163 -0.9164205,0.441767 -1.7473354,1.018376 -2.1018632,1.254034 -0.4587532,0.304938 -0.6813547,0.416023 -0.6678493,0.410463 0.016361,-0.0067 0.091042,-0.03619 0.2235089,-0.05852 0.1399651,-0.0236 0.363514,-0.04214 0.647172,-0.0024 0.3838451,0.05379 0.6680367,0.179709 0.8689857,0.302257 0.2017751,0.123051 0.3474842,0.261726 0.4546769,0.39488 0.2022611,0.251246 0.1653378,0.306213 0.1477739,0.209556 -0.029089,-0.160079 -0.047386,-0.44451 -0.011879,-1.013693 0.036231,-0.580795 0.1296035,-1.36784 0.1754234,-2.299182 z"
         id="path3" />
      <path
         d="m -7.5953241,25.254453 c 0.4513569,2.250831 1.1121603,4.494567 2.3314312,6.439648 1.219271,1.945082 3.0520642,3.579169 5.2638929,4.193805 1.8181441,0.505236 3.778081,0.29628 5.5728956,-0.286431 1.7948146,-0.582712 3.4503073,-1.522668 5.0668754,-2.496125 1.616569,-0.973457 3.215896,-1.990709 4.944106,-2.74847 1.72821,-0.757762 3.611062,-1.251498 5.493148,-1.114882 1.513463,0.109858 2.98146,0.626206 4.297631,1.381411 1.316171,0.755205 2.48669,1.744852 3.545845,2.831512 2.118311,2.17332 3.800804,4.731729 5.828106,6.990181 3.577032,3.98488 8.309248,7.022212 13.549932,8.122058 5.240684,1.099847 10.976647,0.147481 15.312299,-2.995216 2.941287,-2.131992 5.119597,-5.123639 7.405553,-7.946929 2.285955,-2.823289 4.834143,-5.603709 8.164862,-7.053835 2.660363,-1.158267 5.621159,-1.379217 8.518066,-1.543667 2.896907,-0.164451 5.84985,-0.298492 8.571413,-1.30458 4.177188,-1.544195 7.470458,-5.129748 8.979778,-9.319667 1.50932,-4.189918 1.30092,-8.9100406 -0.24515,-13.0865391 -1.32849,-3.588724 -3.59391,-6.779994 -6.268105,-9.5172384 C 96.063062,-6.9377558 92.981051,-9.2440129 89.814708,-11.392986 76.14542,-20.670229 60.22574,-27.292335 43.708201,-27.5883 c -8.258769,-0.147982 -16.580746,1.306876 -24.16076,4.589032 -7.580015,3.282155 -14.397879,8.41882 -19.3575579,15.0241777 C -6.8470208,1.39674 -9.899573,13.763602 -7.5953241,25.254453 Z"
         id="path8"
         style="opacity:0.560284;fill:#80b3ff;fill-opacity:1"
         transform="translate(1.898831,2.4684803)" />
      <path
         style="fill:none;fill-opacity:1;fill-rule:nonzero;stroke:none;stroke-width:0.264583"
         d="m -12.49002,26.235981 c 0.233911,1.166471 0.561125,2.552903 1.052671,3.979357 0.444272,1.289264 1.058252,2.717753 1.943647,4.130208 0.8317731,1.326913 1.9316389,2.661101 3.3213355,3.802339 1.3002709,1.067799 2.919025,2.017264 4.8357579,2.549899 1.49304914,0.414897 3.0026629,0.532065 4.4593997,0.436265 1.3857725,-0.09113 2.7312309,-0.375196 3.991653,-0.784409 2.3384562,-0.759212 4.3709539,-1.926128 6.1005969,-2.967676 1.711731,-1.030761 3.007474,-1.854174 4.373486,-2.453124 0.618285,-0.271097 1.204559,-0.468794 1.747943,-0.5873 0.526393,-0.1148 0.987481,-0.148933 1.37914,-0.120504 0.616578,0.04476 1.364758,0.267703 2.174547,0.732351 0.791186,0.453974 1.601025,1.109397 2.455417,1.985976 0.853799,0.875971 1.658245,1.868602 2.599323,3.06504 0.882405,1.121846 1.937572,2.493009 3.088747,3.77544 2.087686,2.32572 4.53442,4.402413 7.265121,6.069228 2.720129,1.660362 5.738439,2.924667 8.974426,3.603794 3.246424,0.681313 6.651746,0.731149 9.941111,0.114231 3.289818,-0.617002 6.503067,-1.906711 9.326362,-3.953176 1.885814,-1.366933 3.44255,-2.947299 4.773521,-4.466407 1.28191,-1.463113 2.550245,-3.10678 3.582027,-4.381092 1.093109,-1.350054 2.119652,-2.52612 3.186737,-3.505672 1.051096,-0.964874 2.071003,-1.668299 3.091088,-2.112424 0.82118,-0.357525 1.781834,-0.610047 2.936064,-0.787484 1.176948,-0.180929 2.431715,-0.267444 3.872154,-0.349214 1.39948,-0.07944 3.044837,-0.162116 4.686896,-0.367098 1.68212,-0.209985 3.501692,-0.562343 5.33255,-1.239162 2.880999,-1.065026 5.376529,-2.806519 7.376839,-4.909861 2.02347,-2.127703 3.58543,-4.670862 4.56867,-7.40036 0.98867,-2.744576 1.38758,-5.597004 1.31702,-8.367294 -0.0717,-2.8134437 -0.62752,-5.5787248 -1.57721,-8.1441897 -1.65979,-4.48369312 -4.42687,-8.2511505 -7.3789,-11.2727822 -3.07348,-3.1459431 -6.534325,-5.6927901 -9.689976,-7.8345061 -7.241046,-4.914444 -14.995674,-9.051707 -23.065069,-12.020175 -8.359376,-3.075143 -17.009754,-4.879129 -25.755438,-5.035836 -9.336328,-0.167288 -18.30656,1.566733 -26.233827,4.999249 -8.8946549,3.851401 -16.207105,9.737156 -21.3659948,16.607826 -4.1208797,5.4882383 -6.8235132,11.61840422 -8.2602922,17.6631815 -1.607381,6.7625315 -1.650552,13.4464465 -0.427543,19.5453615 z m 9.7893917,-1.963056 C -3.6394422,19.591238 -3.6240638,14.364613 -2.3488225,8.9994506 -1.2075367,4.1978627 0.94662715,-0.66877384 4.1819448,-4.9776099 8.2764745,-10.430752 14.191903,-15.240277 21.531051,-18.41814 c 6.540082,-2.831864 14.086861,-4.322182 22.087704,-4.178823 7.485693,0.13413 15.031106,1.68064 22.487269,4.42352 7.204022,2.650126 14.239023,6.386781 20.905249,10.9110982 2.963683,2.0114294 5.778279,4.1175607 8.155119,6.55044126 2.271144,2.32469264 4.112504,4.93929524 5.157308,7.76170164 0.58315,1.575282 0.91682,3.2571829 0.95949,4.9322789 0.0419,1.647311 -0.19813,3.254535 -0.72938,4.72931 -0.51638,1.433474 -1.345718,2.784281 -2.410205,3.9036 -1.050309,1.10441 -2.285657,1.938215 -3.603842,2.425512 -0.880459,0.325481 -1.892905,0.545043 -3.107367,0.696648 -1.234503,0.154106 -2.50111,0.220254 -4.016013,0.306252 -1.443946,0.08197 -3.125353,0.188066 -4.82332,0.44909 -1.707681,0.262517 -3.560158,0.698517 -5.404603,1.50155 -2.306412,1.004167 -4.233158,2.420586 -5.857338,3.911535 -1.609282,1.477271 -2.99876,3.101161 -4.194553,4.578035 -1.252537,1.546957 -2.218106,2.812933 -3.332027,4.084311 -1.065945,1.21662 -2.068824,2.197545 -3.12353,2.962048 -1.516165,1.098993 -3.340695,1.855138 -5.307163,2.223948 -1.981539,0.371635 -4.064618,0.344196 -6.049946,-0.07246 -2.016398,-0.423176 -3.984069,-1.231853 -5.823261,-2.354493 -1.853557,-1.131408 -3.559091,-2.570107 -5.037072,-4.216605 -0.878744,-0.978938 -1.687641,-2.02827 -2.671095,-3.278583 -0.94859,-1.205988 -2.038312,-2.569879 -3.297046,-3.861301 -1.29259,-1.326156 -2.821442,-2.635716 -4.636277,-3.677049 -1.868196,-1.071949 -4.054216,-1.858691 -6.420709,-2.030469 -1.50679,-0.109374 -2.934721,0.04124 -4.229418,0.323594 -1.318602,0.287572 -2.540564,0.720773 -3.62979,1.198362 -2.117815,0.92859 -4.1376517,2.214575 -5.514733,3.043819 -1.6581973,0.998525 -2.8590446,1.643383 -4.0331624,2.024577 -0.5759908,0.187003 -1.1044137,0.287774 -1.5637375,0.317981 -0.4775282,0.0314 -0.849066,-0.01492 -1.1310045,-0.09327 C 0.97902585,30.978661 0.57971597,30.773303 0.16405505,30.431957 -0.28303071,30.064804 -0.69486183,29.583811 -1.0340854,29.042654 -1.4180572,28.43011 -1.7328677,27.731366 -1.997802,26.962534 -2.2921557,26.108327 -2.5162053,25.192607 -2.7006283,24.272925 Z"
         id="path6"
         transform="translate(1.898831,2.4684803)" />
      <path
         d="m -9.304272,21.45679 c 0.5778491,2.943674 1.3273988,5.8957 2.782581,8.518974 1.4551822,2.623275 3.6926783,4.914238 6.521691,5.912142 2.4317864,0.857786 5.1331484,0.705864 7.613355,2.02e-4 2.480207,-0.705661 4.775838,-1.936539 7.007644,-3.228214 0.850142,-0.492026 1.699538,-0.996759 2.61811,-1.344691 0.918572,-0.347931 1.92102,-0.534005 2.8885,-0.364258 1.124113,0.197228 2.124323,0.863167 2.910625,1.690365 0.786302,0.827199 1.38239,1.813493 1.956875,2.799646 0.574484,0.986152 1.138328,1.98725 1.873052,2.860583 0.734723,0.873333 1.66161,1.621894 2.753602,1.95368 1.034475,0.31431 2.160399,0.235291 3.196375,-0.07403 1.035976,-0.309324 1.992792,-0.838897 2.902881,-1.422563 1.820178,-1.167333 3.561113,-2.598494 5.673498,-3.0606 1.947329,-0.425998 3.996382,0.0362 5.819483,0.842343 1.823101,0.806145 3.476205,1.943564 5.193737,2.95532 3.281747,1.933195 6.909737,3.438466 10.712754,3.648614 1.901509,0.105074 3.829824,-0.120024 5.626495,-0.75149 1.796671,-0.631466 3.458493,-1.676258 4.737774,-3.087008 1.364377,-1.504591 2.255719,-3.36545 3.292035,-5.112267 1.036317,-1.746817 2.302775,-3.4616 4.113407,-4.381888 1.686384,-0.857137 3.661679,-0.929312 5.547753,-0.783363 1.886074,0.145949 3.765697,0.491841 5.65535,0.403599 2.84227,-0.132727 5.607536,-1.272201 7.803721,-3.081313 2.196184,-1.809112 3.827914,-4.267275 4.768934,-6.952531 C 106.548,14.027528 105.62842,7.9496693 103.10653,2.8482464 99.639699,-4.1646532 93.463199,-9.4228238 87.156344,-14.05135 72.532512,-24.783607 55.568373,-33.462379 37.438744,-34.057644 28.373929,-34.355276 19.167838,-32.559269 11.161942,-28.297217 3.1560469,-24.035164 -3.5865815,-17.236544 -7.2155578,-8.9245058 -11.340555,0.52364932 -11.290123,11.340485 -9.304272,21.45679 Z"
         id="path11"
         style="opacity:0.51773;fill:#0055d4"
         transform="translate(-2.2720923e-7,6.076259)" />
      <path
         style="opacity:0.691489;fill:none;fill-opacity:1;fill-rule:nonzero;stroke:none;stroke-width:0.264583"
         d="m -14.202919,22.418404 c 0.284894,1.451304 0.657312,3.157615 1.18986,4.887127 0.492012,1.597863 1.160556,3.351593 2.125905,5.091839 0.9151354,1.649727 2.1361848,3.3244 3.6987132,4.787729 1.4834824,1.389301 3.3146027,2.629961 5.5278031,3.410644 1.81300583,0.639517 3.6862397,0.897166 5.5225798,0.870155 1.7529417,-0.02578 3.4816875,-0.310785 5.1175437,-0.776214 3.0565202,-0.869633 5.7507612,-2.325077 8.1421402,-3.709106 0.936175,-0.541819 1.420426,-0.820645 1.885779,-0.996909 0.178235,-0.06751 0.297954,-0.09347 0.356737,-0.101783 0.05027,-0.0071 0.01303,0.0058 -0.09924,-0.01391 -0.130447,-0.02289 -0.175124,-0.05831 -0.131614,-0.0321 0.04945,0.02979 0.153072,0.104298 0.286658,0.244831 0.332453,0.349745 0.667102,0.852636 1.261587,1.873122 0.485351,0.833145 1.289654,2.281444 2.366542,3.561494 0.571492,0.679308 1.270367,1.374816 2.108454,1.990145 0.832766,0.611422 1.838285,1.169071 3.013954,1.526281 1.107702,0.336559 2.204808,0.445473 3.225563,0.409328 1.010566,-0.03578 1.972227,-0.214237 2.850339,-0.476425 1.68911,-0.504339 3.101463,-1.318792 4.169615,-2.003828 1.079237,-0.692145 1.938381,-1.314991 2.61885,-1.727228 0.704021,-0.426505 1.13079,-0.594071 1.426514,-0.658764 0.243637,-0.0533 0.591799,-0.07255 1.072968,0.0072 0.485372,0.08047 1.046864,0.252542 1.660791,0.52401 0.639381,0.282723 1.308005,0.650002 2.093971,1.119818 0.773057,0.4621 1.624554,1.005438 2.584843,1.57112 1.838955,1.083283 3.85187,2.092812 6.006311,2.867091 2.159483,0.776091 4.495903,1.328315 6.964805,1.464742 2.473593,0.136685 5.067147,-0.151132 7.557229,-1.026307 2.505689,-0.880661 4.893192,-2.361947 6.780556,-4.443271 0.99825,-1.100841 1.755828,-2.257108 2.351813,-3.250534 0.61021,-1.017138 1.095243,-1.925831 1.53558,-2.668064 0.44159,-0.744344 0.835345,-1.313519 1.216054,-1.744953 0.37507,-0.425044 0.663591,-0.630965 0.865858,-0.733771 0.189995,-0.09657 0.4992,-0.200878 1.001131,-0.257959 0.51539,-0.05861 1.13917,-0.05727 1.899527,0.0016 0.772014,0.05974 1.679352,0.176738 2.717363,0.279987 1.033162,0.102767 2.254,0.193859 3.556005,0.133058 4.059704,-0.189583 7.830991,-1.814512 10.744901,-4.214855 3.01396,-2.482753 5.11563,-5.75758 6.30611,-9.154693 1.23257,-3.517189 1.49791,-7.148218 1.12298,-10.570471 -0.38294,-3.4954405 -1.43985,-6.8516179 -2.91846,-9.84262285 -2.05766,-4.16234055 -4.86199,-7.66411365 -7.852804,-10.65913215 -3.058879,-3.063176 -6.442855,-5.721896 -9.618916,-8.052769 -7.66354,-5.624176 -15.872068,-10.643414 -24.525038,-14.365738 -8.955603,-3.85251 -18.325836,-6.288335 -27.982359,-6.605398 -10.279855,-0.337527 -20.273111,1.811025 -28.7865429,6.343268 -4.5801285,2.438297 -8.66606702,5.55452 -12.0857589,9.117316 -3.6348307,3.786938 -6.5174636,8.075636 -8.5209482,12.664544 -2.427977,5.5611964 -3.480152,11.30017646 -3.746857,16.6908581 -0.290796,5.8775929 0.339717,11.5813729 1.334603,16.6495109 z m 9.797294,-1.923228 C -5.2868985,16.0058 -5.8065702,11.135956 -5.565443,6.2622644 c 0.2208896,-4.4646471 1.0818605,-8.9676834 2.9249899,-13.1893063 1.511082,-3.4610781 3.7185526,-6.7708621 6.5738649,-9.7456611 2.6888921,-2.801414 5.9273461,-5.276328 9.5744462,-7.217914 6.819729,-3.630576 15.053834,-5.463666 23.767063,-5.177578 8.179397,0.268563 16.320226,2.337645 24.364573,5.798152 7.786366,3.34953 15.336508,7.939714 22.563169,13.243269 3.017064,2.2141879 5.930647,4.524339 8.461332,7.0585787 2.460757,2.46421388 4.520158,5.1012657 5.967351,8.0287198 1.012618,2.0483799 1.700224,4.2809765 1.943924,6.5053775 0.23788,2.171313 0.0473,4.275546 -0.620537,6.181137 -0.655291,1.869911 -1.77641,3.551524 -3.231757,4.750369 -1.408604,1.16034 -3.154209,1.867993 -4.86253,1.94777 -0.579255,0.02705 -1.23637,-0.0088 -2.102037,-0.0949 -0.835017,-0.08306 -1.810808,-0.21224 -2.935302,-0.299256 -1.114192,-0.08622 -2.42492,-0.123532 -3.797979,0.03261 -1.369296,0.155719 -2.893773,0.513742 -4.396869,1.27772 -1.602027,0.81426 -2.852294,1.922188 -3.828286,3.02822 -0.96056,1.088544 -1.717369,2.24674 -2.316615,3.256831 -0.592749,0.999139 -1.071659,1.894535 -1.510416,2.625883 -0.446463,0.744194 -0.817444,1.273333 -1.186258,1.68005 -0.661296,0.729256 -1.591979,1.343078 -2.694997,1.730749 -1.095245,0.38494 -2.356687,0.550667 -3.695752,0.476673 -1.332337,-0.07362 -2.715081,-0.37988 -4.13891,-0.891586 -1.430133,-0.513972 -2.87198,-1.223473 -4.31549,-2.073809 -0.757465,-0.446204 -1.591505,-0.977586 -2.529718,-1.538409 -0.926997,-0.554118 -1.996001,-1.158217 -3.178942,-1.681293 -1.211157,-0.535554 -2.585492,-0.997063 -4.065521,-1.24244 -1.488923,-0.246851 -3.138436,-0.283182 -4.839689,0.08898 -1.819539,0.398046 -3.320583,1.178926 -4.466123,1.872908 -1.177073,0.713086 -2.098657,1.389736 -2.835513,1.862302 -0.765205,0.490748 -1.261949,0.72957 -1.63615,0.8413 -0.161751,0.0483 -0.280752,0.06298 -0.347152,0.06533 -0.06445,0.0023 -0.04681,-0.0078 0.03031,0.01564 0.07913,0.02404 0.07524,0.03959 -0.0076,-0.02124 -0.0863,-0.06336 -0.218048,-0.180522 -0.377197,-0.369696 -0.399713,-0.475121 -0.737617,-1.057718 -1.379565,-2.159677 -0.57845,-0.99296 -1.425118,-2.435304 -2.652159,-3.726165 -0.659919,-0.694241 -1.450095,-1.363395 -2.3706,-1.918006 -0.94084,-0.566863 -2.047162,-1.030949 -3.295606,-1.249992 -1.089602,-0.191173 -2.112057,-0.166955 -3.024419,-0.03791 -0.924115,0.130706 -1.766307,0.374693 -2.495082,0.650734 -1.392528,0.527454 -2.658361,1.291926 -3.350441,1.692473 -2.2780318,1.318429 -4.0763848,2.236112 -5.8731462,2.747322 -0.8985706,0.255658 -1.755941,0.384753 -2.532128,0.39617 C 2.9081293,31.494571 2.226063,31.379517 1.6606404,31.18007 0.97189445,30.937123 0.28777126,30.507639 -0.36361153,29.897611 -1.0576959,29.247591 -1.6668408,28.436382 -2.156229,27.554156 -2.6951665,26.582607 -3.1189541,25.510321 -3.470903,24.367327 -3.8539122,23.12346 -4.1481145,21.806983 -4.405625,20.495176 Z"
         id="path9"
         transform="translate(-2.2720923e-7,6.076259)" />
    </g>
  </g>
</svg>
